<?xml version="1.0" encoding="UTF-8"?>
<svg width="20px" height="20px" viewBox="0 0 20 20" version="1.1" xmlns="http://www.w3.org/2000/svg" xmlns:xlink="http://www.w3.org/1999/xlink">
    <!-- Generator: sketchtool 53 (72520) - https://sketchapp.com -->
    <title>312F4D94-0971-43F4-BCF2-0CBCDC9DA90E</title>
    <desc>Created with sketchtool.</desc>
    <g id="Page-1" stroke="none" stroke-width="1" fill="none" fill-rule="evenodd">
        <g id="00-SitaAero-Homepage-01" transform="translate(-131.000000, -7066.000000)" fill="#FFFFFF" fill-rule="nonzero">
            <g id="FOOTER-Copy" transform="translate(0.000000, 7051.000000)">
                <path d="M141,35 C135.477539,35 131,30.5224609 131,25 C131,19.4775391 135.477539,15 141,15 C146.522461,15 151,19.4775391 151,25 C151,30.5224609 146.522461,35 141,35 Z M141,17.5 C136.858164,17.5 133.5,20.8581641 133.5,25 C133.5,29.1418359 136.858164,32.5 141,32.5 C145.141797,32.5 148.5,29.1418359 148.5,25 C148.5,20.8581641 145.141836,17.5 141,17.5 Z M144.675547,29.5080469 L144.45582,29.6362109 L143.821055,30.023125 L143.446289,30.2953906 C143.167969,30.4283984 142.877461,30.5334375 142.577148,30.6225391 L142.577148,30.2539062 L142.470898,29.4055078 C142.470898,29.4055078 142.418398,28.9160156 142.339063,28.7878516 C142.259766,28.6584766 142.074219,28.4777734 141.888672,28.4008984 C141.703125,28.3240234 141.571289,28.3239844 141.465039,28.1958203 C141.358828,28.0664453 141.279492,27.8344922 141.147656,27.6294141 C141.014648,27.4231641 140.855898,27.2168359 140.855898,27.1142578 C140.855898,27.0116797 140.855898,25.9558203 140.855898,25.9558203 L140.988945,24.9780469 L141.279492,24.7717578 L141.623711,24.3860156 L141.861758,24.3091016 L142.68207,24.4629297 L143.264336,24.4629297 L143.503594,24.9524219 L144.059023,25.3894531 L144.403242,25.9302734 L144.852461,26.0841016 L145.355469,26.0841016 L145.699688,26.4966797 L145.912109,26.9337109 L145.991406,27.2425391 L145.991406,27.7576953 L145.936523,28.0616406 C145.60082,28.6120703 145.174805,29.0966797 144.675547,29.5080469 Z M142.629648,20.6274219 L142.047383,20.93625 L141.836211,21.5282812 L141.491992,21.8371094 L140.353086,21.8371094 L139.824531,22.0433984 L139.797656,22.4547656 L139.586484,22.7892188 L139.532773,23.1505469 L139.638984,23.459375 L139.77082,23.7682031 C139.77082,23.7682031 140.089414,24.1283203 139.77082,24.3858594 C139.77082,24.3858594 139.374141,24.3858594 139.294727,24.2564844 C139.215391,24.1283203 138.633086,23.7682031 138.526914,23.6644531 C138.421914,23.5619141 138.077695,23.459375 138.077695,23.459375 L137.654102,23.3043359 L137.257383,23.2787109 L137.283008,22.7379297 L137.257383,22.2752734 L137.097461,21.9408203 L136.648242,21.6051172 L136.621367,21.245 L136.676289,21.0448047 C137.748086,20.0084375 139.225117,19.3663281 140.855977,19.3663281 C141.776367,19.3663281 142.636992,19.5872656 143.41457,19.9510547 L143.397461,20.0865625 L142.629648,20.6274219 Z" id="LANGUAGE"></path>
            </g>
        </g>
    </g>
</svg>